<svg xmlns="http://www.w3.org/2000/svg" width="1200" height="800" viewBox="0 0 1200 800">
  <!-- Background with warm cream color -->
  <rect width="1200" height="800" fill="#F5F0E8"/>
  
  <!-- Decorative circles representing cake layers -->
  <ellipse cx="600" cy="520" rx="280" ry="60" fill="#E8DDD0"/>
  <ellipse cx="600" cy="460" rx="260" ry="55" fill="#F2E8DC"/>
  <ellipse cx="600" cy="400" rx="240" ry="50" fill="#EBE0D4"/>
  <ellipse cx="600" cy="340" rx="220" ry="45" fill="#F5EBE0"/>
  <ellipse cx="600" cy="280" rx="200" ry="40" fill="#EDE3D8"/>
  
  <!-- Cake body -->
  <path d="M360 520 L360 280 Q360 240 400 240 L800 240 Q840 240 840 280 L840 520 Z" fill="#FDFBF7" stroke="#D4A574" stroke-width="2"/>
  
  <!-- Cream decorations -->
  <circle cx="420" cy="280" r="25" fill="#F2D7D5"/>
  <circle cx="500" cy="280" r="25" fill="#C5D5C5"/>
  <circle cx="580" cy="280" r="25" fill="#F2D7D5"/>
  <circle cx="660" cy="280" r="25" fill="#C5D5C5"/>
  <circle cx="740" cy="280" r="25" fill="#F2D7D5"/>
  
  <!-- Raspberry decorations -->
  <circle cx="450" cy="250" r="15" fill="#D4738C"/>
  <circle cx="540" cy="250" r="15" fill="#D4738C"/>
  <circle cx="630" cy="250" r="15" fill="#D4738C"/>
  <circle cx="720" cy="250" r="15" fill="#D4738C"/>
  
  <!-- Pistachio accents -->
  <ellipse cx="480" cy="320" rx="30" ry="8" fill="#C5D5C5" transform="rotate(-15 480 320)"/>
  <ellipse cx="600" cy="310" rx="30" ry="8" fill="#C5D5C5"/>
  <ellipse cx="720" cy="320" rx="30" ry="8" fill="#C5D5C5" transform="rotate(15 720 320)"/>
</svg>
