<svg xmlns="http://www.w3.org/2000/svg" width="300" height="300" viewBox="0 0 300 300">
  <!-- Subtle sketch-style illustration of nuts/peanuts for background decoration -->
  <defs>
    <!-- Soft blur filter for watercolor-like effect -->
    <filter id="sketch-blur" x="-20%" y="-20%" width="140%" height="140%">
      <feGaussianBlur in="SourceGraphic" stdDeviation="1"/>
    </filter>
  </defs>
  <g fill="none" stroke="#D4A574" stroke-width="1.5" opacity="0.25" filter="url(#sketch-blur)">
    <!-- Peanut 1 - center -->
    <path d="M150 100 Q165 90 175 105 Q185 125 175 145 Q165 155 150 150 Q135 155 125 145 Q115 125 125 105 Q135 90 150 100 Z" />
    <path d="M150 125 Q145 115 150 105 M150 125 Q155 115 150 105" />
    
    <!-- Peanut 2 - top left -->
    <path d="M80 70 Q90 60 100 70 Q110 85 100 100 Q90 110 80 105 Q70 100 65 85 Q65 70 80 70 Z" />
    <path d="M82 85 Q78 80 82 72" />
    
    <!-- Almond - top right -->
    <ellipse cx="220" cy="80" rx="20" ry="35" transform="rotate(-20 220 80)" />
    <path d="M210 60 Q220 55 230 65" />
    
    <!-- Hazelnut - bottom left -->
    <circle cx="70" cy="200" r="25" />
    <path d="M55 175 Q70 165 85 175" />
    <path d="M50 180 Q70 168 90 180" />
    
    <!-- Walnut half - bottom right -->
    <path d="M230 200 Q250 185 260 200 Q270 220 260 240 Q245 255 220 245 Q200 230 210 210 Q215 195 230 200 Z" />
    <path d="M225 210 Q235 220 230 235 M245 205 Q250 220 245 235" />
    
    <!-- Small decorative leaves -->
    <path d="M140 180 Q150 170 160 180 Q155 190 145 190 Q135 190 140 180 Z" />
    <path d="M180 140 Q190 135 195 145 Q190 155 180 150 Q175 145 180 140 Z" />
    
    <!-- Scattered small circles (like seeds) -->
    <circle cx="110" cy="140" r="4" />
    <circle cx="190" cy="170" r="3" />
    <circle cx="130" cy="220" r="5" />
    <circle cx="170" cy="250" r="3" />
    <circle cx="100" cy="250" r="4" />
  </g>
</svg>
